<svg 
    xmlns="http://www.w3.org/2000/svg" 
    xmlns:se="http://svg-edit.googlecode.com" 
    xmlns:xlink="http://www.w3.org/1999/xlink" 
    xmlns:dc="http://purl.org/dc/elements/1.1/" 
    xmlns:cc="http://creativecommons.org/ns#" 
    xmlns:rdf="http://www.w3.org/1999/02/22-rdf-syntax-ns#" 
    xmlns:inkscape="http://www.inkscape.org/namespaces/inkscape" 
    width="438.9183654785156" 
    height="242.75509643554688" 
    style=""
>                                    
    <title>my vector image</title>
    <rect 
        id="backgroundrect" 
        width="100%" 
        height="100%" 
        x="0" 
        y="0" 
        fill="#ffb900" 
        stroke="none" 
        class="" 
        style=""
        fill-opacity="0"
    />                               
    <g class="currentLayer" style="">
        <title>Layer 1</title>
        <defs>
            <linearGradient id="myGradient">
                <stop offset="0%" stop-color="white" />
                <stop offset="100%" stop-color="white" />
            </linearGradient>
        </defs>
        <polyline 
            fill="none" 
            stroke="url(#myGradient)" 
            stroke-width="4" 
            stroke-linejoin="round" 
            stroke-dashoffset="" 
            fill-rule="nonzero" 
            marker-start="" 
            marker-mid="" 
            marker-end="" 
            id="svg_1" 
            points="97.01019409704799,144.08162673479922 97.52039816875072,144.08162673479922 98.03060224045339,143.57142266309654 101.60203074237216,140.51019823288044 108.23468367450704,136.42856565925894 114.86733660664191,131.83672901393481 120.47958139537144,126.22448422520529 124.05100989729021,123.67346386669186 125.07141804069556,122.65305572328651 125.58162211239829,122.14285165158384 126.09182618410097,122.65305572328651 126.09182618410097,123.16325979498919 126.60203025580364,123.67346386669186 126.60203025580364,126.22448422520529 126.09182618410097,134.89795344415091 126.09182618410097,146.12244302160997 124.05100989729021,161.93876924439314 119.96937732366877,178.77550361058167 112.82652031983116,198.6734624069863 107.21427553110169,214.9999927014722 104.66325517258826,223.1632578487151 103.64284702918286,226.73468635063387 103.13264295748019,227.2448904223366 103.64284702918286,227.2448904223366 104.66325517258826,225.71427820722852 107.21427553110169,218.0612171316883 110.2754999613178,206.83672755422924 113.33672439153389,191.53060540314874 118.43876510856069,170.102034391636 123.03060175388487,149.69387152352874 130.17345875772241,129.79591272712406 137.82651983326264,117.55101500625969 142.9285605502895,109.89795393071944 146.49998905220826,106.83672950050334 148.54080533901902,104.28570914198991 153.13264198434314,102.75509692688186 156.19386641455924,103.26530099858456 157.21427455796464,103.26530099858456 158.23468270137002,106.32652542880066 160.27549898818074,111.42856614582749 160.27549898818074,120.10203536477309 156.70407048626197,129.2857086554214 148.03060126731634,137.95917787436701 134.7652954030466,144.5918308065019 124.56121396899289,149.69387152352874 123.54080582558754,150.20407559523142 124.05100989729021,150.20407559523142 124.56121396899289,152.2448918820422 129.66325468601974,158.3673407424743 136.8061116898573,167.5510140331226 146.49998905220826,178.265299538879 155.68366234285656,189.48978911633805 160.27549898818074,195.6122379767702 162.31631527499144,198.16325833528361 162.82651934669417,199.18366647868902 163.84692749009952,199.18366647868902 164.3571315618022,198.6734624069863 165.37753970520754,195.10203390506751 167.92856006372097,186.93876875782462 170.98978449393707,173.6734628935548 174.05100892415317,154.28570816885286 179.15304964118002,134.89795344415091 182.7244781430988,119.59183129307041 185.7857025733149,108.87754578731406 187.31631478842291,102.24489285517919 190.37753921863901,97.65305620985504 195.47957993566587,94.59183177963894 207.72447765653027,89.99999513431479 218.4387631622866,86.93877070409869 220.98978352080002,85.91836256069331 220.98978352080002,86.42856663239601 220.98978352080002,87.44897477580136 219.96937537739467,88.97958699090941 218.94896723398932,89.99999513431479 215.88774280377322,91.53060734942284 210.78570208674637,93.57142363623356 202.11223286780074,97.65305620985504 192.41835550544977,103.26530099858456 186.29590664501757,107.34693357220601 183.23468221480147,111.42856614582749 182.7244781430988,113.46938243263821 180.68366185628804,116.53060686285431 180.17345778458537,118.06121907796236 180.17345778458537,121.12244350817849 181.19386592799071,123.67346386669186 182.7244781430988,125.71428015350261 186.29590664501757,126.73468829690796 193.43876364885512,128.7755045837187 199.05100843758464,129.2857086554214 200.07141658099,129.2857086554214 200.58162065269272,129.2857086554214 201.0918247243954,129.2857086554214 200.07141658099,132.85713715734016 198.54080436588197,136.93876973096167 192.41835550544977,145.10203487820456 183.74488628650414,155.30611631225827 176.6020292826666,162.9591773877985 173.5408048524505,168.06121810482534 173.03060078074782,169.59183031993336 173.03060078074782,170.6122384633387 173.03060078074782,170.6122384633387 174.05100892415317,171.63264660674412 181.70406999969344,171.63264660674412 190.37753921863901,172.65305475014947 195.47957993566587,173.16325882185214 195.98978400736854,173.6734628935548 196.49998807907122,173.6734628935548 196.49998807907122,173.16325882185214 197.01019215077395,172.65305475014947 201.0918247243954,168.57142217652802 207.72447765653027,161.4285651726904 213.3367224452598,150.20407559523142 217.92855909058392,134.89795344415091 223.03059980761077,117.55101500625969 227.6224364529349,100.20407656836846 233.7448853133671,85.40815848899064 238.33672195869127,74.69387298323429 241.90815046061005,69.59183226620746 243.43876267571807,67.04081190769404 246.49998710593417,64.48979154918064 246.49998710593417,63.979587477477935 247.0101911776369,64.48979154918064 247.52039524933957,64.99999562088331 248.54080339274492,69.59183226620746 251.60202782296102,77.24489334174771 252.62243596636637,88.46938291920674 253.64284410977177,103.26530099858456 252.62243596636637,121.63264757988117 250.58161967955567,134.38774937244824 249.56121153615027,142.55101451969114 249.56121153615027,149.18366745182607 250.071415607853,150.20407559523142 251.09182375125835,150.20407559523142 252.1122318946637,150.20407559523142 251.60202782296102,150.20407559523142 250.58161967955567,149.18366745182607 239.35713010209662,137.44897380266434 228.13264052463762,125.20407608179994 215.88774280377322,113.46938243263821 212.3163143018544,109.38774985901676 211.80611023015172,109.38774985901676 212.82651837355712,109.38774985901676 219.459171305692,106.83672950050334 233.7448853133671,101.22448471177381 253.64284410977177,93.06121956453089 268.9489662608523,84.89795441728796 278.1326395515006,76.22448519834234 283.74488434023004,69.59183226620746 286.29590469874347,65.51019969258599 288.33672098555417,62.95917933407259 289.8673332006623,59.89795490385649 289.8673332006623,59.387750832153785 290.377537272365,59.89795490385649 290.377537272365,61.93877119066721 290.88774134406765,63.46938340577526 291.3979454157703,62.95917933407259 291.3979454157703,62.95917933407259 290.88774134406765,61.93877119066721 291.908149487473,60.40815897555916 292.41835355917567,59.387750832153785 292.41835355917567,55.81632233023501 292.41835355917567,52.75509790001891 292.41835355917567,52.244893828316236 292.41835355917567,51.734689756613534 291.908149487473,51.22448568491086 290.88774134406765,50.714281613208186 290.377537272365,50.714281613208186 289.8673332006623,51.22448568491086 290.88774134406765,51.22448568491086 289.8673332006623,56.326526401937684 288.33672098555417,66.02040376428869 287.3163128421489,77.75509741345039 287.3163128421489,88.46938291920674 287.8265169138515,99.18366842496309 288.33672098555417,108.36734171561139 287.8265169138515,117.04081093455699 287.8265169138515,123.67346386669186 288.33672098555417,127.24489236861064 288.84692505725695,130.30611679882674 288.84692505725695,132.85713715734016 289.3571291289596,133.36734122904284 289.3571291289596,132.85713715734016 289.8673332006623,132.85713715734016 290.377537272365,132.85713715734016 300.58161870641857,129.79591272712406 318.94896528771517,124.69387201009727 344.9693729445521,118.57142314966504 367.9285561711728,117.04081093455699 375.581617246713,116.53060686285431 374.051005031605,117.04081093455699 368.9489643145781,121.12244350817849 " 
            style="color: rgb(0, 0, 0);"
        />
    </g>
</svg>